HIERARCHY
ROOT root
{
	OFFSET 0.000000 0.000000 0.000000
	CHANNELS 6 Xposition Yposition Zposition Zrotation Yrotation Xrotation
	JOINT lhip
	{
		OFFSET 0.058581 -0.082280 -0.017664
		CHANNELS 3 Zrotation Yrotation Xrotation
		JOINT lknee
		{
			OFFSET 0.043451 -0.386469 0.008037
			CHANNELS 3 Zrotation Yrotation Xrotation
			JOINT lankle
			{
				OFFSET -0.014790 -0.426874 -0.037428
				CHANNELS 3 Zrotation Yrotation Xrotation
				JOINT ltoe
				{
					OFFSET 0.041054 -0.060286 0.122042
					CHANNELS 3 Zrotation Yrotation Xrotation
					End Site
					{
						OFFSET 0.000000 0.000000 0.000000
					}
				}
			}
		}
	}
	JOINT rhip
	{
		OFFSET -0.060310 -0.090513 -0.013543
		CHANNELS 3 Zrotation Yrotation Xrotation
		JOINT rknee
		{
			OFFSET -0.043257 -0.383688 -0.004843
			CHANNELS 3 Zrotation Yrotation Xrotation
			JOINT rankle
			{
				OFFSET 0.019056 -0.420046 -0.034562
				CHANNELS 3 Zrotation Yrotation Xrotation
				JOINT rtoe
				{
					OFFSET -0.034840 -0.062106 0.130323
					CHANNELS 3 Zrotation Yrotation Xrotation
					End Site
					{
						OFFSET 0.000000 0.000000 0.000000
					}
				}
			}
		}
	}
	JOINT lowerback
	{
		OFFSET 0.004439 0.124404 -0.038385
		CHANNELS 3 Zrotation Yrotation Xrotation
		JOINT upperback
		{
			OFFSET 0.004488 0.137956 0.026820
			CHANNELS 3 Zrotation Yrotation Xrotation
			JOINT chest
			{
				OFFSET -0.002265 0.056032 0.002855
				CHANNELS 3 Zrotation Yrotation Xrotation
				JOINT lowerneck
				{
					OFFSET -0.013390 0.211636 -0.033468
					CHANNELS 3 Zrotation Yrotation Xrotation
					JOINT upperneck
					{
						OFFSET 0.010113 0.088937 0.050410
						CHANNELS 3 Zrotation Yrotation Xrotation
						End Site
						{
							OFFSET 0.000000 0.000000 0.000000
						}
					}
				}
				JOINT lclavicle
				{
					OFFSET 0.071702 0.114000 -0.018898
					CHANNELS 3 Zrotation Yrotation Xrotation
					JOINT lshoulder
					{
						OFFSET 0.122921 0.045205 -0.019046
						CHANNELS 3 Zrotation Yrotation Xrotation
						JOINT lelbow
						{
							OFFSET 0.255332 -0.015649 -0.022946
							CHANNELS 3 Zrotation Yrotation Xrotation
							JOINT lwrist
							{
								OFFSET 0.265709 0.012698 -0.007375
								CHANNELS 3 Zrotation Yrotation Xrotation
								End Site
								{
									OFFSET 0.000000 0.000000 0.000000
								}
							}
						}
					}
				}
				JOINT rclavicle
				{
					OFFSET -0.082954 0.112472 -0.023707
					CHANNELS 3 Zrotation Yrotation Xrotation
					JOINT rshoulder
					{
						OFFSET -0.113228 0.046853 -0.008472
						CHANNELS 3 Zrotation Yrotation Xrotation
						JOINT relbow
						{
							OFFSET -0.260127 -0.014369 -0.031269
							CHANNELS 3 Zrotation Yrotation Xrotation
							JOINT rwrist
							{
								OFFSET -0.269108 0.006794 -0.006027
								CHANNELS 3 Zrotation Yrotation Xrotation
								End Site
								{
									OFFSET 0.000000 0.000000 0.000000
								}
							}
						}
					}
				}
			}
		}
	}
}
MOTION
Frames: 13
Frame Time: 0.033333
0.441967 0.145597 0.996790 80.818735 3.738272 95.839607 6.923358 3.279749 -1.154987 4.428299 3.434868 -8.157361 -1.086872 10.881187 -0.732351 0.000000 -0.000000 0.000000 0.087093 3.132566 -7.568769 -0.133355 2.282694 -1.638338 7.873317 -0.311239 -1.804148 0.000000 -0.000000 0.000000 -3.796214 -1.564254 1.618748 4.530506 -9.979020 -0.673485 3.672744 -3.783740 -6.952066 1.497513 17.603271 3.706729 8.580298 16.769586 -0.969432 -5.039615 -26.106877 -6.728991 -27.929970 -28.050335 -0.953327 39.505752 -31.077517 -52.856133 -3.085055 -13.332413 -38.733263 4.657272 26.673220 -9.141434 50.643984 31.588812 28.188756 151.739191 62.651912 163.053079 10.509198 6.394125 -35.748498 
0.442541 0.145717 0.996789 80.798903 3.728099 95.815646 6.879746 3.268893 -1.076018 4.452134 3.497789 -8.191805 -1.167016 10.842440 -0.755292 0.000000 -0.000000 0.000000 0.049878 3.152901 -7.522297 -0.121751 2.289613 -1.627840 7.864851 -0.294984 -1.803137 0.000000 -0.000000 0.000000 -3.745967 -1.604359 1.717370 4.497679 -9.971052 -0.634714 3.665897 -3.758158 -6.862712 1.264799 17.213779 3.143634 8.349154 16.190723 -1.829509 -5.006231 -26.063826 -6.921998 -28.022901 -28.000248 -0.848129 39.580577 -31.151778 -53.032727 -3.147324 -13.316221 -38.513791 4.643668 26.720146 -9.262552 50.235732 31.349588 27.923061 152.420678 62.493407 163.609966 10.629219 6.375497 -35.731326 
0.443106 0.145820 0.996778 80.812638 3.730380 95.822355 6.852894 3.284156 -1.076826 4.488016 3.466282 -8.143854 -1.213941 10.853243 -0.821973 0.000000 -0.000000 0.000000 0.032814 3.150936 -7.493676 -0.101551 2.334161 -1.619142 7.833210 -0.352528 -1.836205 0.000000 -0.000000 0.000000 -3.685787 -1.615723 1.812028 4.472515 -9.940532 -0.691376 3.659145 -3.799073 -6.756180 0.928624 16.773899 2.587130 8.214120 15.651727 -2.685061 -5.065577 -26.170254 -6.961904 -27.950403 -27.900180 -0.911128 39.593232 -31.145468 -53.065933 -3.218535 -13.257713 -38.355272 4.655003 26.755592 -9.429628 49.847655 31.063749 27.618739 152.629828 62.245370 163.827674 10.613076 6.372195 -35.603261 
0.443701 0.145916 0.996746 80.805931 3.744047 95.884141 6.840734 3.276422 -1.109602 4.493457 3.498409 -8.133313 -1.208185 10.873290 -0.846786 0.000000 -0.000000 0.000000 0.030157 3.109252 -7.503031 -0.090365 2.396396 -1.669076 7.829209 -0.363720 -1.807868 0.000000 -0.000000 0.000000 -3.632513 -1.602853 1.791666 4.500722 -9.961417 -0.652052 3.693772 -3.910548 -6.766545 0.700229 16.362834 1.934281 7.974299 15.209591 -3.036837 -5.169330 -26.207838 -6.996931 -27.833777 -27.677822 -0.943673 39.544653 -31.160635 -53.260877 -3.343464 -13.256599 -38.297095 4.719098 26.869107 -9.464887 49.398472 31.018716 27.459059 152.686538 62.052588 163.727971 10.780203 6.460497 -35.520882 
0.444400 0.145861 0.996676 80.773170 3.748099 95.972843 6.806467 3.319367 -1.141842 4.528430 3.463784 -8.159661 -1.229629 10.929559 -0.901430 0.000000 -0.000000 0.000000 0.025972 3.062155 -7.545861 -0.084596 2.461900 -1.698015 7.799639 -0.389665 -1.829563 0.000000 -0.000000 0.000000 -3.578997 -1.632662 1.699522 4.520550 -10.006793 -0.635659 3.734936 -3.950205 -6.796618 0.492483 16.043863 1.519743 7.916541 14.950397 -3.150934 -5.236399 -26.302400 -7.065976 -27.718846 -27.327838 -0.949360 39.465096 -31.292890 -53.377050 -3.243138 -13.090235 -38.109128 4.811881 27.240825 -9.464772 48.425208 31.384391 27.233528 152.163118 61.756934 162.670582 10.523356 6.246632 -35.465158 
0.445133 0.145710 0.996691 80.673643 3.764637 95.981051 6.813688 3.357919 -1.069132 4.528198 3.574830 -8.188942 -1.213323 10.912224 -0.883899 0.000000 -0.000000 0.000000 0.042000 3.129329 -7.487375 -0.088974 2.469086 -1.751098 7.826898 -0.378736 -1.833399 0.000000 -0.000000 0.000000 -3.518369 -1.725595 1.756209 4.511994 -10.027336 -0.812587 3.671462 -3.986960 -6.779889 0.633998 16.025505 1.456084 7.923133 14.689496 -3.221895 -5.089477 -26.163316 -7.019044 -27.896858 -27.326117 -0.964106 39.533080 -31.112513 -53.203956 -3.386988 -13.277170 -38.245033 4.671370 27.095632 -9.435629 49.360942 31.121948 27.628716 152.057227 61.905586 162.985138 10.696832 6.334008 -35.674508 
0.445845 0.145579 0.996660 80.525115 3.797037 95.935657 6.836667 3.396695 -0.944376 4.528591 3.623230 -8.170438 -1.200208 10.965589 -0.929623 0.000000 -0.000000 0.000000 0.067383 3.145748 -7.417297 -0.070978 2.497234 -1.737355 7.819792 -0.347148 -1.840414 0.000000 -0.000000 0.000000 -3.505584 -1.774946 1.667660 4.502989 -10.050317 -0.715811 3.670090 -3.928833 -6.751177 0.661785 16.064529 1.409240 7.972820 14.731032 -3.257465 -5.174542 -26.280148 -6.972642 -27.709408 -27.209839 -1.149744 39.521052 -31.101022 -53.281793 -3.373756 -13.301399 -38.252374 4.666678 27.256870 -9.340018 49.479136 31.139809 27.612366 151.835062 61.896206 162.893006 10.905524 6.533474 -35.711116 
0.446496 0.145319 0.996510 80.372106 3.805177 96.013536 6.844684 3.462917 -0.970864 4.504847 3.656888 -8.149078 -1.278656 11.076014 -0.961406 0.000000 -0.000000 0.000000 0.080426 3.157618 -7.506938 -0.083939 2.593472 -1.701190 7.867146 -0.324639 -1.837159 0.000000 -0.000000 0.000000 -3.579988 -1.788920 1.655559 4.549294 -9.984262 -0.965993 3.761600 -3.827501 -6.582598 0.549634 15.830616 1.227088 8.012847 14.734328 -3.154413 -5.258056 -26.406069 -7.172488 -27.655982 -27.109693 -0.961767 39.402938 -31.158483 -53.372349 -3.088168 -12.961052 -38.203769 4.871776 27.631227 -9.319954 48.484794 31.474165 27.469953 151.419333 61.432714 161.795163 10.140526 6.078536 -35.634843 
0.447048 0.145215 0.996662 80.335553 3.812671 96.089375 6.826239 3.432119 -0.989388 4.533403 3.769807 -8.188292 -1.227290 11.041292 -0.874760 0.000000 -0.000000 0.000000 0.090384 3.206786 -7.533535 -0.096846 2.544669 -1.737420 7.893332 -0.306794 -1.816378 0.000000 -0.000000 0.000000 -3.517644 -1.755859 1.702159 4.547878 -10.000265 -1.075126 3.694589 -3.980436 -6.802464 0.849137 16.076850 1.328241 8.042805 14.651458 -2.926883 -5.087492 -26.273579 -6.946253 -27.774955 -27.238912 -1.060986 39.257746 -30.956043 -53.007156 -3.392143 -13.469697 -38.367732 4.769857 27.286783 -9.189348 49.809715 31.061417 27.923415 151.456913 61.645588 162.437004 10.725615 6.417822 -35.814360 
0.447684 0.145254 0.996624 80.354220 3.846804 96.055561 6.863351 3.446426 -0.900003 4.530798 3.697148 -8.229858 -1.220755 11.066426 -0.898154 0.000000 -0.000000 0.000000 0.108274 3.146145 -7.461669 -0.046478 2.558427 -1.733168 7.841925 -0.317590 -1.828495 0.000000 -0.000000 0.000000 -3.487982 -1.748092 1.689435 4.574166 -10.072006 -0.919688 3.754642 -4.034482 -6.930072 0.814161 16.137736 1.234614 8.013217 14.813392 -2.897121 -5.278761 -26.508956 -6.778092 -27.462004 -27.032722 -1.299129 39.251490 -30.977885 -53.110681 -3.643480 -13.524021 -38.148994 4.845438 27.466719 -9.183971 49.657869 31.051473 27.788846 151.156800 61.632257 162.180557 11.448033 6.846146 -35.577142 
0.448214 0.145273 0.996677 80.334543 3.842467 96.078469 6.851662 3.499596 -0.883901 4.533170 3.603162 -8.223302 -1.282612 11.157580 -0.963819 0.000000 -0.000000 0.000000 0.086470 3.123741 -7.464042 -0.022290 2.579929 -1.697479 7.845391 -0.319513 -1.838651 0.000000 -0.000000 0.000000 -3.506344 -1.759970 1.674527 4.604263 -10.114409 -0.878133 3.811230 -3.978299 -6.962924 0.702740 16.106759 1.197290 8.001038 15.130045 -2.976488 -5.392897 -26.637507 -6.862214 -27.422514 -26.860596 -1.271806 39.306420 -31.178837 -53.176852 -3.457476 -13.210200 -38.067147 5.032781 27.855519 -9.170001 48.441331 31.535608 27.494344 150.835912 61.211251 161.213452 10.835030 6.530744 -35.545578 
0.448547 0.145275 0.996720 80.289965 3.827689 96.110381 6.837092 3.499854 -0.899712 4.519641 3.608190 -8.181722 -1.246950 11.184802 -0.969772 0.000000 -0.000000 0.000000 0.068041 3.171081 -7.471274 -0.033846 2.609783 -1.725122 7.842341 -0.320960 -1.855369 0.000000 -0.000000 0.000000 -3.484570 -1.763164 1.646899 4.572208 -10.109086 -0.865408 3.780133 -3.980300 -6.986261 0.775953 16.268352 1.173792 7.953497 15.330258 -2.958374 -5.348333 -26.598380 -6.834474 -27.469942 -26.944831 -1.344697 39.294123 -31.186737 -53.078905 -3.464024 -13.319194 -38.172798 4.905407 27.774769 -9.149152 48.716037 31.542338 27.557385 150.864870 61.332091 161.385984 10.700301 6.463533 -35.650680 
0.448766 0.145363 0.996772 80.280826 3.808629 96.138177 6.823662 3.459706 -0.946905 4.492153 3.639169 -8.118764 -1.176764 11.170512 -0.942716 0.000000 -0.000000 0.000000 0.051254 3.169998 -7.484530 -0.053787 2.629167 -1.741826 7.844695 -0.360237 -1.842040 0.000000 -0.000000 0.000000 -3.426885 -1.749657 1.637198 4.523972 -10.108787 -0.922933 3.709226 -3.994664 -6.903005 0.902519 16.599100 1.185895 7.890816 15.627687 -2.794159 -5.277223 -26.567950 -6.764899 -27.462604 -27.073276 -1.469517 39.334907 -31.181887 -52.952402 -3.604049 -13.451917 -38.241391 4.647858 27.490117 -9.173444 49.584416 31.338851 27.721084 151.103171 61.716954 162.140302 11.054868 6.545753 -35.750411 
